Coordinates
version=1
nRows=11
nColumns=40
inDegrees=yes

Units are S.I. units (second, meters, Newtons, ...)
Angles are in degrees.

endheader
time	pelvis_tilt	pelvis_list	pelvis_rotation	pelvis_tx	pelvis_ty	pelvis_tz	hip_flexion_r	hip_adduction_r	hip_rotation_r	knee_angle_r	knee_angle_r_beta	ankle_angle_r	subtalar_angle_r	mtp_angle_r	hip_flexion_l	hip_adduction_l	hip_rotation_l	knee_angle_l	knee_angle_l_beta	ankle_angle_l	subtalar_angle_l	mtp_angle_l	lumbar_extension	lumbar_bending	lumbar_rotation	arm_flex_r	arm_add_r	arm_rot_r	elbow_flex_r	pro_sup_r	wrist_flex_r	wrist_dev_r	arm_flex_l	arm_add_l	arm_rot_l	elbow_flex_l	pro_sup_l	wrist_flex_l	wrist_dev_l
     22.91664286	     -5.52985040	     -8.23200375	      3.37116567	      1.04859629	      0.91167927	      0.49944527	     -1.77833289	      7.71210607	    -17.13410452	      8.16820878	      8.16820878	     17.83776389	      8.14616629	     -4.24967127	     36.28312197	    -11.11399804	      0.59758900	     21.23919047	     21.23919047	      3.58159388	     -9.74312353	     10.44855835	    -10.76131665	      7.20966569	      7.50451108	     51.82790700	    -14.27014599	      4.45855457	     97.67908595	     44.31952005	      0.00000000	      0.00000000	    -23.73515706	     -8.99517644	      7.88928072	     30.80242678	     44.86159954	      0.00000000	      0.00000000
     22.92828571	     -5.46087471	     -8.11622031	      3.25347366	      1.04998841	      0.91025784	      0.49744229	     -2.17685284	      7.37147698	    -16.77428906	      8.90193852	      8.90193852	     18.49196720	      7.69830960	     -4.19441654	     35.80465039	    -10.89229691	      0.44127670	     21.89926761	     21.89926761	      2.89017051	    -10.55574399	     10.04747755	    -10.62481267	      7.04483769	      7.37428188	     52.67139185	    -13.68638830	      4.60666850	     99.18191884	     44.27991671	      0.00000000	      0.00000000	    -24.49109398	     -8.78918967	      7.93450232	     30.66228344	     44.85222736	      0.00000000	      0.00000000
     22.93992857	     -5.46852575	     -7.90717774	      3.04542059	      1.05153364	      0.90909961	      0.49543119	     -2.62913704	      6.93778571	    -16.37990103	      9.37670873	      9.37670873	     18.91926447	      7.49195404	     -4.17436782	     35.41417316	    -10.65293853	      0.18041336	     22.68702403	     22.68702403	      2.41075667	    -11.22208978	      9.82026077	    -10.31658541	      6.71308705	      7.35419685	     53.16397245	    -13.38682168	      4.66987539	    100.09291414	     44.25496788	      0.00000000	      0.00000000	    -25.15794815	     -8.65413603	      7.96284107	     30.46276537	     44.84150711	      0.00000000	      0.00000000
     22.95157143	     -5.51912121	     -7.74235311	      3.01698826	      1.05275882	      0.90800903	      0.49297106	     -2.55913121	      6.45505410	    -15.86577653	     10.76777974	     10.76777974	     20.03579413	      6.42905567	     -2.54504167	     34.98268308	    -10.22222103	      0.57522379	     23.08780322	     23.08780322	      0.60565165	    -12.98306997	      6.87743307	    -10.16438310	      6.52793659	      7.46862941	     52.99027922	    -13.41770683	      4.77545979	    103.75232595	     44.18949695	      0.00000000	      0.00000000	    -25.38339552	     -8.49894141	      7.72272891	     30.57284664	     44.91971952	      0.00000000	      0.00000000
     22.96321429	     -5.39708347	     -7.46097863	      2.97229016	      1.05422367	      0.90762908	      0.49044599	     -3.12425142	      5.92335830	    -15.68224548	     11.25190086	     11.25190086	     20.27208770	      6.24481862	     -2.58366050	     34.62036053	     -9.85241697	      0.52633592	     24.09812690	     24.09812690	      0.57399646	    -13.43780099	      6.64114040	    -10.03941903	      6.19615045	      7.33240758	     53.16014135	    -13.11861564	      4.84226500	    104.27765220	     44.17457298	      0.00000000	      0.00000000	    -25.54185049	     -8.33678789	      7.77259444	     30.43973143	     44.91307230	      0.00000000	      0.00000000
     22.97485714	     -5.44837775	     -7.26115083	      2.94658970	      1.05514556	      0.90714352	      0.48774718	     -2.91204781	      5.30665433	    -15.43952631	     12.81978279	     12.81978279	     20.69851459	      5.56180675	     -2.61160770	     34.55139967	     -9.47857224	      0.76491906	     25.15048568	     25.15048568	      0.53670944	    -14.21244157	      6.24092744	     -9.95908439	      5.98818259	      6.74767942	     53.18481300	    -12.37989361	      5.09855657	    106.49276397	     44.11122095	      0.00000000	      0.00000000	    -25.51478491	     -8.01494926	      7.84992671	     30.07144113	     44.91596927	      0.00000000	      0.00000000
     22.98650000	     -5.42176604	     -6.97509687	      2.91765303	      1.05621039	      0.90730133	      0.48487368	     -2.92478260	      4.62212837	    -15.25047574	     14.11441505	     14.11441505	     20.92021676	      5.03654374	     -2.51500971	     34.30445290	     -9.02882736	      0.94266149	     26.08878376	     26.08878376	      0.87139578	    -14.83213193	      6.06576190	     -9.89552930	      5.68626256	      6.84890954	     52.56980343	    -12.57873129	      5.07045955	    108.65972453	     44.06762674	      0.00000000	      0.00000000	    -24.98892499	     -7.89685007	      7.82373785	     29.57717726	     44.95055411	      0.00000000	      0.00000000
     22.99814286	     -5.36663367	     -6.73540320	      2.91874275	      1.05716591	      0.90780784	      0.48179290	     -2.88271181	      3.93712572	    -15.17090692	     15.52874722	     15.52874722	     20.91119916	      4.62747851	     -2.76132494	     34.04172433	     -8.63036956	      1.05281418	     27.01280945	     27.01280945	      1.52267013	    -15.19033782	      6.08323560	     -9.89699153	      5.48954874	      6.78136416	     52.00126302	    -12.60516502	      5.05877447	    110.30761794	     44.03456620	      0.00000000	      0.00000000	    -24.34754884	     -7.74025286	      7.85007225	     29.22690653	     44.97380716	      0.00000000	      0.00000000
     23.00978571	     -5.35541773	     -6.48819717	      2.90827127	      1.05795688	      0.90857803	      0.47858692	     -2.62940011	      3.17957419	    -15.11067438	     17.21223337	     17.21223337	     20.71471534	      4.18328857	     -3.38129811	     33.74370617	     -8.20443088	      1.16528651	     27.78383133	     27.78383133	      2.41053082	    -15.44182332	      6.37186495	     -9.86662698	      5.29971729	      6.82402620	     51.12361075	    -12.82326042	      5.01867445	    112.07759552	     43.99961345	      0.00000000	      0.00000000	    -23.48893332	     -7.60341537	      7.86651500	     28.88763018	     45.00284745	      0.00000000	      0.00000000
     23.02142857	     -5.28629959	     -6.25862278	      2.86325637	      1.05867712	      0.90970610	      0.47531473	     -2.29967127	      2.38824815	    -15.01874595	     19.12166785	     19.12166785	     20.35796283	      3.73460792	     -4.07450440	     33.28851311	     -7.83832950	      1.09408338	     28.38062936	     28.38062936	      3.28163389	    -15.61132620	      6.41250293	     -9.90580825	      5.15933706	      6.66564971	     50.27302760	    -12.85217724	      5.09032439	    113.18388583	     43.97098657	      0.00000000	      0.00000000	    -22.67375218	     -7.47126906	      7.87935441	     28.83706124	     45.02287672	      0.00000000	      0.00000000
     23.03307143	     -5.27956876	     -6.11005404	      2.81558215	      1.05924591	      0.91105014	      0.47205189	     -1.79588971	      1.64797828	    -14.95871038	     21.10419953	     21.10419953	     19.16792000	      3.07108665	     -6.56901019	     32.84078591	     -7.50695717	      1.16246212	     28.86062516	     28.86062516	      4.58092476	    -15.67720369	      7.72233313	     -9.96587082	      5.03994196	      7.34009627	     48.50213364	    -13.95514005	      4.57186784	    115.83317053	     43.94340351	      0.00000000	      0.00000000	    -21.11534593	     -7.48269444	      7.79964823	     28.33099761	     45.09035660	      0.00000000	      0.00000000
